<?xml version="1.0" standalone="no"?><!DOCTYPE svg PUBLIC "-//W3C//DTD SVG 1.1//EN" "http://www.w3.org/Graphics/SVG/1.1/DTD/svg11.dtd"><svg t="1575354233883" class="icon" viewBox="0 0 1024 1024" version="1.1" xmlns="http://www.w3.org/2000/svg" p-id="4934" xmlns:xlink="http://www.w3.org/1999/xlink" width="48" height="48"><defs><style type="text/css"></style></defs><path d="M679.822222 45.511111c-68.266667 0-139.377778 39.822222-162.133333 85.333333-22.755556-42.666667-93.866667-85.333333-162.133333-85.333333H65.422222c-11.377778 0-31.288889 8.533333-31.288889 28.444445v824.888888c0 31.288889 5.688889 56.888889 56.888889 56.888889h227.555556c105.244444-2.844444 159.288889 14.222222 173.511111 56.888889h54.044444c14.222222-42.666667 82.488889-56.888889 170.666667-56.888889h230.4c36.977778 0 54.044444-14.222222 54.044444-56.888889V76.8c0-19.911111-14.222222-31.288889-28.444444-31.288889H679.822222z m-335.644444 853.333333h-256v-796.444444h256c51.2 0 119.466667 39.822222 142.222222 85.333333v739.555556c-31.288889-34.133333-93.866667-31.288889-142.222222-28.444445z m597.333333 0h-227.555555c-48.355556 0-139.377778-2.844444-170.666667 28.444445v-739.555556c22.755556-45.511111 91.022222-85.333333 142.222222-85.333333h256v796.444444z" fill="#545E68" p-id="4935"></path></svg>