<?xml version="1.0" standalone="no"?><!DOCTYPE svg PUBLIC "-//W3C//DTD SVG 1.1//EN" "http://www.w3.org/Graphics/SVG/1.1/DTD/svg11.dtd"><svg t="1575354173153" class="icon" viewBox="0 0 1024 1024" version="1.1" xmlns="http://www.w3.org/2000/svg" p-id="3280" xmlns:xlink="http://www.w3.org/1999/xlink" width="48" height="48"><defs><style type="text/css"></style></defs><path d="M497.377 551.253c69.509-37.109 116.969-110.333 116.969-194.478 0-121.515-98.864-220.393-220.379-220.393s-220.379 98.864-220.379 220.393c0 84.828 48.251 158.487 118.675 195.311-153.409 44.947-267.168 186.354-269.366 353.513l40.96 0.532c2.375-180.907 151.498-328.076 332.418-328.076s330.042 147.169 332.404 328.076l40.96-0.532c-2.212-168.209-117.405-310.34-272.261-354.345zM214.548 356.775c0-98.932 80.486-179.433 179.419-179.433s179.419 80.5 179.419 179.433-80.486 179.419-179.419 179.419-179.419-80.486-179.419-179.419zM729.47 551.253c69.523-37.109 116.969-110.333 116.969-194.492 0-119.644-95.887-217.102-214.821-220.092l0 40.96c96.352 2.963 173.861 82.07 173.861 179.132s-77.51 176.169-173.861 179.146l0 42.229c179.445 1.747 326.82 148.179 329.168 327.994l40.96-0.532c-2.198-168.209-117.405-310.34-272.275-354.345z" p-id="3281"></path></svg>