<?xml version="1.0" standalone="no"?><!DOCTYPE svg PUBLIC "-//W3C//DTD SVG 1.1//EN" "http://www.w3.org/Graphics/SVG/1.1/DTD/svg11.dtd"><svg t="1576738657689" class="icon" viewBox="0 0 1024 1024" version="1.1" xmlns="http://www.w3.org/2000/svg" p-id="1824" width="200" height="200" xmlns:xlink="http://www.w3.org/1999/xlink"><defs><style type="text/css"></style></defs><path d="M989.825725 688.832005a16.039512 16.039512 0 1 1-16.039512-16.039512 16.111762 16.111762 0 0 1 16.039512 16.039512zM794.750582 596.279687a16.039512 16.039512 0 1 1-16.039512-16.039512 16.039512 16.039512 0 0 1 16.039512 16.039512zM223.397164 580.240175A16.762012 16.762012 0 1 1 206.707401 563.550413a16.689762 16.689762 0 0 1 16.689763 16.689762zM974.002963 346.800254a26.226769 26.226769 0 1 1-26.226769-26.226769 26.154519 26.154519 0 0 1 26.226769 26.226769zM155.987864 278.812954a32.295774 32.295774 0 1 1-32.223523-32.295773 32.223524 32.223524 0 0 1 32.223523 32.295773zM88.723065 704.943766A25.865519 25.865519 0 1 1 62.857546 679.150497a25.865519 25.865519 0 0 1 25.865519 25.793269z" fill="#5FB0E5" p-id="1825"></path><path d="M784.852325 404.961547a29.550272 29.550272 0 0 1-29.550272 29.478021 29.478022 29.478022 0 0 1-29.478021-29.478021v-28.900022a29.478022 29.478022 0 0 1 29.478021-29.261271 29.478022 29.478022 0 0 1 29.550272 29.478022z" fill="#FFFFFF" p-id="1826"></path><path d="M755.302053 451.490581a46.601284 46.601284 0 0 1-46.529034-46.529034v-28.900022a46.601284 46.601284 0 0 1 93.130318 0v28.900022a46.601284 46.601284 0 0 1-46.601284 46.529034z m0-87.567064a12.427009 12.427009 0 0 0-12.427009 12.427009v28.900021a12.499259 12.499259 0 0 0 24.926268 0v-28.900021a12.499259 12.499259 0 0 0-12.499259-12.427009z" fill="#0686D8" p-id="1827"></path><path d="M284.954209 404.961547a29.478022 29.478022 0 0 1-29.478022 29.478021 29.550272 29.550272 0 0 1-29.550272-29.478021v-28.900022A29.478022 29.478022 0 0 1 255.476187 346.800254a29.478022 29.478022 0 0 1 29.478022 29.478022z" fill="#FFFFFF" p-id="1828"></path><path d="M255.476187 451.490581a46.601284 46.601284 0 0 1-46.601284-46.529034v-28.900022a46.601284 46.601284 0 0 1 93.130318 0v28.900022a46.601284 46.601284 0 0 1-46.529034 46.529034z m0-87.567064a12.499259 12.499259 0 0 0-12.499259 12.427009v28.900021a12.499259 12.499259 0 0 0 24.926268 0v-28.900021a12.427009 12.427009 0 0 0-12.427009-12.427009z" fill="#0686D8" p-id="1829"></path><path d="M824.373104 1008.899739v-89.445566c0-148.690609-141.826854-270.431948-315.154731-270.431948-173.400127 0-315.154731 121.741339-315.154731 270.431948v89.445566z" fill="#9ECFEF" p-id="1830"></path><path d="M211.114655 1008.899739H177.01263v-89.445566a250.707684 250.707684 0 0 1 9.609257-68.63755l32.801524 9.392507a216.750159 216.750159 0 0 0-8.308756 59.245043z" fill="#0686D8" p-id="1831"></path><path d="M240.448176 810.284343l-29.694772-16.834262a296.225217 296.225217 0 0 1 62.135046-75.645805l22.542016 25.648769a260.100191 260.100191 0 0 0-54.98229 66.831298z" fill="#0686D8" p-id="1832"></path><path d="M841.424116 1008.899739h-34.102025v-89.445566c0-139.659352-133.734848-253.308686-298.103718-253.308685A332.350243 332.350243 0 0 0 339.575249 711.590771l-17.412263-29.333521a366.669019 366.669019 0 0 1 187.127637-50.575037c183.226134 0 332.350243 128.966344 332.350243 287.48296z" fill="#0686D8" p-id="1833"></path><path d="M556.831158 746.632047V566.512665a50.575037 50.575037 0 0 0-50.575037-50.575037h-16.762012a50.575037 50.575037 0 0 0-50.575038 50.575037v180.119382l58.956044 47.179284z" fill="#FFFFFF" p-id="1834"></path><path d="M497.875115 815.703097l-76.007056-60.834544V566.512665a67.6983 67.6983 0 0 1 67.62605-67.62605h16.762012a67.6983 67.6983 0 0 1 67.626049 67.62605v188.355888z m-41.905031-77.235306l41.905031 33.524024 41.90503-33.524024v-171.955126a33.596275 33.596275 0 0 0-33.524024-33.524025h-16.762012a33.596275 33.596275 0 0 0-33.524025 33.524025z" fill="#0686D8" p-id="1835"></path><path d="M502.715868 642.08622a224.842165 224.842165 0 0 1-223.975164-223.975164v-151.725111c0-123.33084 101.150074-120.513088 223.975164-120.513088 123.33084 0 223.975164-2.817752 223.975164 120.513088v151.725111a224.842165 224.842165 0 0 1-223.975164 223.975164z" fill="#FFFFFF" p-id="1836"></path><path d="M502.715868 659.137233a241.531927 241.531927 0 0 1-241.242926-241.242927v-151.725111c0-62.496296 24.276018-102.233825 74.200804-121.452339 42.049531-16.184012 99.199323-16.111762 158.950116-16.111762h16.039512c60.039794 0 117.045086 0 158.950116 16.111762C719.755027 163.71862 744.175545 203.456149 744.175545 265.952445v151.725111a241.531927 241.531927 0 0 1-241.459677 241.459677z m-15.678261-496.646864c-54.04304 0-104.618077 0.578-139.153602 13.87201-24.348268 9.392507-52.236788 28.033021-52.236788 89.590066v151.725111a207.140902 207.140902 0 1 0 414.209553 0v-151.725111c0-61.557045-27.96077-80.197559-52.309038-89.590066-36.125026-13.94426-89.879066-13.94426-146.739858-13.87201h-23.770267z" fill="#0686D8" p-id="1837"></path><path d="M279.607705 361.250265a53.681789 53.681789 0 0 1-53.68179-53.68179V178.529881A80.414309 80.414309 0 0 1 306.340224 98.115572a66.108798 66.108798 0 0 1 66.108799-66.108799h326.064489a79.908559 79.908559 0 0 1 79.908558 79.908559v193.774642a49.708036 49.708036 0 0 1-52.814789 49.635786V227.370917s-36.847527 60.184294-152.736611 60.039794c-140.165103 0-231.200169-69.360051-231.20017-69.360051a117.623086 117.623086 0 0 1-27.38277 35.619276 37.931278 37.931278 0 0 1-34.680025 9.898257z" fill="#5FB0E5" p-id="1838"></path><path d="M296.658717 378.301277H279.607705a70.805052 70.805052 0 0 1-70.732802-70.732802V178.529881a97.609821 97.609821 0 0 1 81.93156-96.237071 83.304311 83.304311 0 0 1 81.64256-67.337049h326.064489a97.031821 97.031821 0 0 1 96.959571 96.959571v193.774642a66.831299 66.831299 0 0 1-70.949552 66.686799l-15.967262-1.011501V227.370917h34.102025V335.240246a32.729274 32.729274 0 0 0 18.712764-29.550272V111.915332a62.929796 62.929796 0 0 0-62.857546-62.857546H372.449023a49.130036 49.130036 0 0 0-49.057786 49.057786v17.051012H306.340224a63.435546 63.435546 0 0 0-63.363296 63.363297v129.038594a36.630777 36.630777 0 0 0 19.579764 32.440274V240.448176l22.108516 6.791505a22.108516 22.108516 0 0 0 18.351514-6.285755 103.678826 103.678826 0 0 0 23.120017-29.983771l31.067523 14.08876a135.757849 135.757849 0 0 1-31.573274 41.39928 58.594793 58.594793 0 0 1-28.900021 14.450011z" fill="#0686D8" p-id="1839"></path><path d="M573.15967 304.461723c-144.066606 0-267.325196-90.312566-272.6717-93.925069l20.302265-27.38277c1.156001 0.867001 119.790588 87.278064 252.441685 87.422564 104.473577 0 151.725111-69.071051 154.037113-72.250053l28.466521 18.857264c-2.456502 3.540253-59.100543 87.278064-182.575884 87.278064z" fill="#0686D8" p-id="1840"></path><path d="M519.911381 473.093347h-66.325549V334.011995h34.102025v104.979327h32.223524v34.102025z" fill="#0686D8" p-id="1841"></path><path d="M369.848021 343.260001h52.381288v34.102025h-52.381288z" fill="#0686D8" p-id="1842"></path><path d="M580.023425 343.260001h52.381288v34.102025h-52.381288z" fill="#0686D8" p-id="1843"></path><path d="M445.927327 524.824384h112.421082v34.102025H445.927327z" fill="#0686D8" p-id="1844"></path></svg>