<?xml version="1.0" standalone="no"?><!DOCTYPE svg PUBLIC "-//W3C//DTD SVG 1.1//EN" "http://www.w3.org/Graphics/SVG/1.1/DTD/svg11.dtd"><svg t="1575355146687" class="icon" viewBox="0 0 1026 1024" version="1.1" xmlns="http://www.w3.org/2000/svg" p-id="5223" xmlns:xlink="http://www.w3.org/1999/xlink" width="48.09375" height="48"><defs><style type="text/css"></style></defs><path d="M348.547072 538.499072a127.9488 127.9488 0 0 0 0-180.998144c-48.310272-48.37376-132.687872-48.37376-180.998144 0a127.985664 127.985664 0 1 0 180.998144 180.998144zM194.048 448a64 64 0 1 1 109.25056 45.2608c-24.188928 24.18688-66.312192 24.18688-90.50112 0a63.565824 63.565824 0 0 1-18.74944-45.2608z m389.500928 197.500928a128 128 0 1 0 180.998144 0c-48.310272-48.37376-132.687872-48.37376-180.998144 0z m135.749632 135.749632c-24.188928 24.18688-66.312192 24.18688-90.50112 0a64 64 0 1 1 90.50112 0z m-39.749632-242.751488a127.985664 127.985664 0 1 0 181.000192-180.998144c-48.31232-48.37376-132.68992-48.37376-181.000192 0a127.9488 127.9488 0 0 0 0 180.998144z m45.248512-135.749632a63.993856 63.993856 0 1 1 90.50112 90.50112c-24.188928 24.18688-66.312192 24.18688-90.50112 0a63.97952 63.97952 0 0 1 0-90.50112zM514.048 384a127.985664 127.985664 0 0 0 90.499072-218.499072c-48.310272-48.37376-132.687872-48.37376-180.998144 0A128 128 0 0 0 514.048 384z m-45.2608-173.2608a64.008192 64.008192 0 1 1 90.5216 90.5216c-24.188928 24.18688-66.312192 24.18688-90.50112 0a63.97952 63.97952 0 0 1-0.01024-90.51136zM263.548928 645.500928a128 128 0 1 0 180.998144 0c-48.310272-48.37376-132.687872-48.37376-180.998144 0z m135.749632 135.749632c-24.188928 24.18688-66.312192 24.18688-90.50112 0a64 64 0 1 1 90.50112 0z m146.74944-365.25056h-64v64h64v-64z m64 128v-64h-64v64h64z m-64 0h-64v64h64v-64z m-128-64v64h64v-64h-64zM994.05824 960H761.368576C918.99904 872.624128 1026.048 704.638976 1026.048 512 1026.048 229.687296 796.360704 0 514.048 0S2.048 229.687296 2.048 512s229.687296 512 512 512h480.01024a32 32 0 0 0 0-64zM66.048 512c0-247.02976 200.97024-448 448-448S962.048 264.97024 962.048 512 761.07776 960 514.048 960 66.048 759.02976 66.048 512z" p-id="5224"></path></svg>